<svg width="50" height="50" viewBox="0 0 50 50" fill="none" xmlns="http://www.w3.org/2000/svg">
    <g filter="url(#filter0_d_21_173)">
        <path d="M34.9996 33.3741C34.9033 33.6303 34.8442 33.9102 34.7037 34.1382C34.2598 34.8579 33.5759 35.0618 32.7782 34.9751C32.2838 34.9213 31.8849 34.6873 31.5369 34.3342C29.4129 32.1801 27.2842 30.0304 25.1579 27.8784C25.1031 27.823 25.06 27.7549 24.9998 27.6773C24.9164 27.7576 24.8608 27.8091 24.8072 27.8633C22.6476 30.0471 20.4884 32.2308 18.3292 34.4145C17.6844 35.0666 16.5614 35.1921 15.7859 34.6996C14.9048 34.1402 14.7322 32.8013 15.4332 31.9557C15.5002 31.8753 15.573 31.7997 15.6466 31.7253C17.8101 29.5364 19.974 27.3479 22.1387 25.1602C22.1888 25.1095 22.2503 25.0703 22.316 25.0177C22.2413 24.9365 22.1951 24.8839 22.1461 24.8344C19.9826 22.6459 17.8183 20.4578 15.6548 18.2689C14.9522 17.5579 14.9021 16.4529 15.5354 15.6877C16.168 14.924 17.2625 14.7756 18.07 15.3472C18.1706 15.4185 18.2622 15.5044 18.3495 15.5923C20.4927 17.7455 22.635 19.9 24.777 22.0548C24.8416 22.1197 24.9015 22.1894 24.9802 22.2749C25.0467 22.2112 25.1023 22.1605 25.1552 22.1075C27.287 19.9518 29.4168 17.7942 31.551 15.6406C32.602 14.5796 34.3259 14.9893 34.7358 16.4035C34.9417 17.1145 34.7941 17.7606 34.2676 18.2942C32.1331 20.4562 29.9958 22.6162 27.8589 24.7758C27.8037 24.8312 27.7391 24.8771 27.662 24.942C27.7352 25.02 27.7853 25.0763 27.8385 25.1297C29.9625 27.2655 32.083 29.4049 34.2144 31.5325C34.5952 31.9125 34.89 32.3258 35 32.8607L34.9996 33.3741Z" fill="white"/>
    </g>
    <defs>
        <filter id="filter0_d_21_173" x="0" y="0" width="50" height="50" filterUnits="userSpaceOnUse" color-interpolation-filters="sRGB">
            <feFlood flood-opacity="0" result="BackgroundImageFix"/>
            <feColorMatrix in="SourceAlpha" type="matrix" values="0 0 0 0 0 0 0 0 0 0 0 0 0 0 0 0 0 0 127 0" result="hardAlpha"/>
            <feOffset/>
            <feGaussianBlur stdDeviation="7.5"/>
            <feComposite in2="hardAlpha" operator="out"/>
            <feColorMatrix type="matrix" values="0 0 0 0 0.0666667 0 0 0 0 0.0666667 0 0 0 0 0.0666667 0 0 0 0.5 0"/>
            <feBlend mode="normal" in2="BackgroundImageFix" result="effect1_dropShadow_21_173"/>
            <feBlend mode="normal" in="SourceGraphic" in2="effect1_dropShadow_21_173" result="shape"/>
        </filter>
    </defs>
</svg>
