<svg width="60" height="60" viewBox="0 0 60 60" fill="none" xmlns="http://www.w3.org/2000/svg">
    <g filter="url(#filter0_d_21_433)">
        <path d="M29.9911 12.0237C32.1117 12.0237 34.2323 11.9907 36.3514 12.0331C38.1495 12.0693 39.9193 12.3541 41.6151 12.988C44.5616 14.0924 46.4006 16.2098 47.2879 19.1988C47.7252 20.676 47.9659 22.1894 47.9769 23.7216C48.0052 27.9093 48.01 32.0971 47.9754 36.2848C47.9596 38.0829 47.6639 39.8511 47.0409 41.5517C45.9161 44.613 43.709 46.4772 40.6099 47.3487C39.2428 47.7326 37.8443 47.9623 36.43 47.9717C32.1495 48 27.8705 48.0157 23.59 47.967C21.6472 47.9449 19.7389 47.5989 17.933 46.8312C15.2177 45.6765 13.5533 43.6125 12.718 40.8249C12.2775 39.365 12.0352 37.8642 12.0242 36.3446C11.9943 32.1175 11.9896 27.8905 12.0242 23.6634C12.04 21.8779 12.3388 20.1223 12.9634 18.4374C14.0614 15.472 16.1805 13.6157 19.1852 12.7238C21.1107 12.1527 23.0866 11.9954 25.0813 12.0001C26.7174 12.0032 28.3535 12.0001 29.9896 12.0001C29.9896 12.008 29.9896 12.0158 29.9896 12.0237H29.9911ZM14.5255 29.9859C14.5255 29.9859 14.5177 29.9859 14.5129 29.9859C14.5129 31.8579 14.5082 33.7284 14.5129 35.6005C14.5177 37.0053 14.6529 38.3944 15.0038 39.7583C15.6456 42.2627 17.1275 44.0011 19.6241 44.8112C20.966 45.247 22.3519 45.4562 23.7552 45.4672C27.6031 45.4956 31.451 45.4861 35.2989 45.4893C36.8878 45.4893 38.461 45.3603 39.9979 44.9261C42.4851 44.2245 44.1243 42.6592 44.87 40.1705C45.2554 38.882 45.4536 37.5622 45.463 36.2266C45.4898 32.2355 45.4835 28.2444 45.4788 24.2533C45.4772 22.902 45.3278 21.5648 44.9911 20.2528C44.2989 17.5502 42.6471 15.7489 39.9161 15.085C38.7048 14.7909 37.4431 14.5832 36.2003 14.5596C32.3666 14.4888 28.5313 14.5266 24.6959 14.5219C23.2124 14.5203 21.7447 14.643 20.3005 15.0032C17.5932 15.6781 15.8218 17.3189 15.0683 20.0279C14.7253 21.2581 14.5475 22.5134 14.5318 23.7845C14.5066 25.8517 14.5255 27.9204 14.5255 29.9875V29.9859Z" fill="white"/>
        <path d="M35.0049 26.0106C33.5922 26.0106 32.1779 26.0106 30.7652 26.0106C29.933 26.0106 29.3651 25.4977 29.3667 24.7568C29.3683 24.0347 29.9346 23.4998 30.7338 23.4982C33.5985 23.4919 36.4647 23.4919 39.331 23.4982C40.0374 23.4998 40.5612 23.945 40.665 24.59C40.7563 25.1563 40.3913 25.7573 39.8234 25.9398C39.6535 25.9948 39.4647 26.0058 39.2838 26.0074C37.857 26.0121 36.4317 26.0106 35.0049 26.0106Z" fill="white"/>
        <path d="M35.0267 37.7462C33.5873 37.7462 32.1479 37.7525 30.71 37.7431C29.9486 37.7384 29.3933 37.2302 29.3681 36.5444C29.343 35.8836 29.8212 35.3236 30.4788 35.2481C30.5952 35.2339 30.7132 35.2308 30.8312 35.2308C33.6172 35.2308 36.4048 35.2308 39.1909 35.2308C39.3734 35.2308 39.5606 35.2355 39.7368 35.2764C40.2795 35.4022 40.6964 35.9686 40.6759 36.5286C40.6555 37.106 40.2244 37.6109 39.6565 37.7101C39.4898 37.7384 39.3183 37.7431 39.1484 37.7431C37.775 37.7462 36.4017 37.7431 35.0267 37.7431V37.7462Z" fill="white"/>
        <path d="M21.7872 36.0252C22.7799 35.031 23.7065 34.1091 24.6252 33.1794C24.987 32.8128 25.4102 32.6618 25.9073 32.7861C26.8417 33.0205 27.1579 34.1516 26.4783 34.8752C25.8601 35.5328 25.2072 36.1573 24.5701 36.7945C23.9786 37.386 23.3903 37.9822 22.7925 38.569C22.1742 39.1762 21.4679 39.1746 20.8575 38.5721C20.4752 38.1961 20.0929 37.8186 19.7201 37.4347C19.1884 36.8873 19.1789 36.1102 19.6871 35.6115C20.1826 35.1254 20.9487 35.1411 21.482 35.6539C21.5859 35.753 21.6645 35.8758 21.7856 36.0268L21.7872 36.0252Z" fill="white"/>
        <path d="M21.8186 24.2376C21.9366 24.1259 22.042 24.0331 22.1411 23.934C22.9639 23.1128 23.785 22.2869 24.6094 21.4689C25.1741 20.9088 25.9513 20.8695 26.4641 21.3666C26.988 21.8763 26.9785 22.6456 26.4122 23.2166C25.2087 24.4327 23.9974 25.644 22.7798 26.8475C22.1616 27.4578 21.4647 27.4453 20.8448 26.8364C20.4626 26.4605 20.0803 26.0845 19.709 25.6991C19.1946 25.1642 19.1789 24.3996 19.6618 23.9025C20.1511 23.4007 20.9392 23.4101 21.4898 23.9277C21.5921 24.0237 21.6943 24.1212 21.817 24.2376H21.8186Z" fill="white"/>
    </g>
    <defs>
        <filter id="filter0_d_21_433" x="0" y="0" width="60" height="59.9984" filterUnits="userSpaceOnUse" color-interpolation-filters="sRGB">
            <feFlood flood-opacity="0" result="BackgroundImageFix"/>
            <feColorMatrix in="SourceAlpha" type="matrix" values="0 0 0 0 0 0 0 0 0 0 0 0 0 0 0 0 0 0 127 0" result="hardAlpha"/>
            <feOffset/>
            <feGaussianBlur stdDeviation="6"/>
            <feComposite in2="hardAlpha" operator="out"/>
            <feColorMatrix type="matrix" values="0 0 0 0 0 0 0 0 0 0 0 0 0 0 0 0 0 0 0.8 0"/>
            <feBlend mode="normal" in2="BackgroundImageFix" result="effect1_dropShadow_21_433"/>
            <feBlend mode="normal" in="SourceGraphic" in2="effect1_dropShadow_21_433" result="shape"/>
        </filter>
    </defs>
</svg>
