<svg width="60" height="60" viewBox="0 0 60 60" fill="none" xmlns="http://www.w3.org/2000/svg">
    <g filter="url(#filter0_d_21_440)">
        <path d="M23.1922 38.404H22.6431C22.5503 38.404 22.4748 38.3285 22.4748 38.2356C22.4748 37.2194 22.4732 36.2031 22.4748 35.1869C22.4827 30.7254 25.4308 26.7626 29.7349 25.589C30.339 25.4238 30.9541 25.3184 31.5803 25.2791C31.6495 25.2744 31.7171 25.2665 31.7989 25.2571C31.8036 25.2571 31.8068 25.2524 31.8068 25.2477V21.8134C31.8068 21.631 32.0192 21.5319 32.1608 21.6483C34.5614 23.632 36.94 25.6 39.3359 27.5822C39.4413 27.6687 39.4413 27.8292 39.3359 27.9157C36.9479 29.89 34.5677 31.8596 32.1655 33.845C32.0239 33.9614 31.8099 33.8623 31.8099 33.6782V30.2802C31.8099 30.2802 31.8068 30.2707 31.8021 30.2707C27.8755 30.0426 23.6201 33.3117 23.4675 38.1365C23.4628 38.2844 23.3416 38.404 23.1922 38.404Z" fill="white"/>
        <path d="M29.9913 12.0237C32.1119 12.0237 34.2325 11.9907 36.3515 12.0331C38.1497 12.0693 39.9195 12.3541 41.6153 12.988C44.5618 14.0924 46.4009 16.2099 47.2881 19.1989C47.7255 20.6761 47.9662 22.1894 47.9772 23.7217C48.0055 27.9094 48.0102 32.0972 47.9756 36.2849C47.9599 38.0831 47.6641 39.8513 47.0411 41.5519C45.9163 44.6132 43.7092 46.4774 40.6101 47.349C39.243 47.7328 37.8445 47.9625 36.4302 47.9719C32.1496 48.0003 27.8706 48.016 23.5901 47.9672C21.6472 47.9452 19.739 47.5991 17.933 46.8314C15.2177 45.6767 13.5533 43.6127 12.718 40.8251C12.2775 39.3652 12.0352 37.8644 12.0242 36.3447C11.9943 32.1176 11.9896 27.8906 12.0242 23.6635C12.04 21.878 12.3389 20.1223 12.9634 18.4375C14.0615 15.4721 16.1805 13.6157 19.1852 12.7238C21.1108 12.1527 23.0867 11.9954 25.0814 12.0001C26.7175 12.0032 28.3536 12.0001 29.9897 12.0001C29.9897 12.008 29.9897 12.0158 29.9897 12.0237H29.9913ZM14.5255 29.986C14.5255 29.986 14.5177 29.986 14.513 29.986C14.513 31.8581 14.5082 33.7286 14.513 35.6006C14.5177 37.0055 14.653 38.3945 15.0038 39.7585C15.6456 42.2629 17.1275 44.0013 19.6241 44.8115C20.9661 45.2472 22.352 45.4565 23.7553 45.4675C27.6032 45.4958 31.4511 45.4863 35.2991 45.4895C36.888 45.4895 38.4611 45.3605 39.9981 44.9263C42.4853 44.2247 44.1245 42.6594 44.8702 40.1706C45.2556 38.8822 45.4538 37.5623 45.4633 36.2267C45.49 32.2356 45.4837 28.2445 45.479 24.2534C45.4774 22.9021 45.328 21.5649 44.9913 20.2529C44.2991 17.5502 42.6473 15.7489 39.9163 15.0851C38.705 14.7909 37.4433 14.5832 36.2005 14.5596C32.3667 14.4888 28.5314 14.5266 24.696 14.5219C23.2125 14.5203 21.7448 14.643 20.3006 15.0033C17.5932 15.6781 15.8218 17.3189 15.0683 20.0279C14.7253 21.2581 14.5476 22.5135 14.5318 23.7846C14.5067 25.8518 14.5255 27.9205 14.5255 29.9876V29.986Z" fill="white"/>
    </g>
    <defs>
        <filter id="filter0_d_21_440" x="0" y="0" width="60" height="59.9986" filterUnits="userSpaceOnUse" color-interpolation-filters="sRGB">
            <feFlood flood-opacity="0" result="BackgroundImageFix"/>
            <feColorMatrix in="SourceAlpha" type="matrix" values="0 0 0 0 0 0 0 0 0 0 0 0 0 0 0 0 0 0 127 0" result="hardAlpha"/>
            <feOffset/>
            <feGaussianBlur stdDeviation="6"/>
            <feComposite in2="hardAlpha" operator="out"/>
            <feColorMatrix type="matrix" values="0 0 0 0 0 0 0 0 0 0 0 0 0 0 0 0 0 0 0.8 0"/>
            <feBlend mode="normal" in2="BackgroundImageFix" result="effect1_dropShadow_21_440"/>
            <feBlend mode="normal" in="SourceGraphic" in2="effect1_dropShadow_21_440" result="shape"/>
        </filter>
    </defs>
</svg>
