<svg width="74" height="83" viewBox="0 0 74 83" fill="none" xmlns="http://www.w3.org/2000/svg">
    <path opacity="0.7" d="M0.00731083 41.4556C0.00731083 31.0553 0.00409807 20.6583 0.00731083 10.2581C0.00731083 8.41435 0.158311 6.59008 0.826567 4.84697C2.29159 1.02965 5.66178 -0.778389 9.58136 0.315521C11.056 0.727766 12.5114 1.34776 13.8415 2.11382C31.9005 12.5368 49.937 23.002 67.9767 33.4574C69.5349 34.3598 71.0159 35.3726 72.1629 36.8008C74.7427 40.0144 74.6207 43.7798 71.7003 46.7044C70.6529 47.7561 69.4256 48.6877 68.1437 49.4311C50.0044 59.9871 31.8426 70.501 13.6873 81.0246C11.9331 82.0406 10.0954 82.8359 8.0553 82.9787C4.44093 83.2352 1.57835 81.1609 0.614524 77.4443C0.219354 75.9219 0.033013 74.3054 0.0265874 72.731C-0.0183913 62.3048 0.00731083 51.8786 0.00731083 41.4556Z" fill="white"/>
</svg>
